<?xml version="1.0" encoding="utf-8"?>
<!-- Generator: Adobe Illustrator 16.0.0, SVG Export Plug-In . SVG Version: 6.00 Build 0)  -->
<!DOCTYPE svg PUBLIC "-//W3C//DTD SVG 1.0//EN" "http://www.w3.org/TR/2001/REC-SVG-20010904/DTD/svg10.dtd">
<svg version="1.0" xmlns="http://www.w3.org/2000/svg" xmlns:xlink="http://www.w3.org/1999/xlink" x="0px" y="0px" width="540px"
	 height="100px" viewBox="0 0 540 100" enable-background="new 0 0 540 100" xml:space="preserve">
<g id="Layer_1">
	<g>
		<path d="M211.033,54.096c-1-0.688-2.22-1.521-3.657-1.896c-1.439-0.377-3.059-0.866-4.859-0.866h-6.85v17h7.075
			c3.827,0,6.678-0.471,8.554-1.895c1.875-1.426,2.813-3.529,2.813-6.556c0-1.251-0.262-2.316-0.788-3.316
			C212.796,55.567,212.034,54.785,211.033,54.096z"/>
		<path d="M228.004,17.334H56.88l-26.62,33.354l26.62,31.646h171.124l26.621-31.646L228.004,17.334z M104.667,71.969
			c-5,1.768-9.701,2.692-14.489,2.917c-4.487,0.211-9.302-0.231-13.538-1.794c-3.926-1.448-7.539-3.932-9.966-7.366
			c-2.451-3.472-3.764-7.621-4.174-11.82c-0.851-8.691,1.437-17.821,8.439-23.51c6.999-5.686,16.749-6.671,25.391-5.354
			c2.111,0.321,4.243,0.064,6.253,0.784c0.37,0.133,1.084,0.152,1.084,0.604c0,0.386,0,0.771,0,1.157c0,1.756,0,3.513,0,5.27
			c-8-3.57-18.512-4.165-25.93,1.101c-7.254,5.149-8.537,15.415-6.343,23.478c1.096,4.026,3.512,7.486,7.248,9.448
			c3.806,1.999,8.377,2.434,12.603,2.036c1.089-0.103,2.171-0.254,3.243-0.478c0.779-0.163,2.015-0.169,2.775-0.413
			c0.125-0.164,0.404-0.918,0.404-1.114c0-2.153,0-4.307,0-6.46c0-2.678,0-4.121,0-6.121h-11v-6h18V71.969z M143.161,73.5
			l-19.957-29.736l-5.537-9.988v24.724v15.836h-8v-49h10.72l19.813,28.87l7.467,11.124V39.065v-6.427l3.888,6.089l6.23,10.708
			l-6.313,11.076L143.161,73.5z M177.966,74.334L166,54.448l-11.333,19.393v0.493h-0.587h-0.013h-7.561l8.23-13.137l7.322-12.045
			l-7.322-11.56l-7.685-12.258h7.685h0.231l11.218,18.459l11.293-18.459h7.691L170.125,48.99l16.282,25.345H177.966z
			 M219.832,66.027c-0.914,1.814-2.214,3.346-3.902,4.597c-1.688,1.251-3.728,2.143-6.116,2.793
			c-2.389,0.65-5.047,0.918-7.973,0.918h-12.174v-49h13.375c10.931,0,16.396,4.016,16.396,11.97c0,2.65-0.632,4.948-1.894,6.848
			c-1.263,1.9-3.321,3.325-6.172,4.25c1.326,0.25,2.583,0.68,3.771,1.281c1.187,0.6,2.231,1.377,3.132,2.328
			s1.613,2.077,2.139,3.378c0.525,1.3,0.788,2.765,0.788,4.391C221.201,62.131,220.744,64.214,219.832,66.027z"/>
		<path d="M206.513,45.872c1.238-0.324,2.301-0.811,3.189-1.487c0.887-0.675,1.576-1.513,2.063-2.525
			c0.487-1.013,0.73-2.217,0.73-3.619c0-1-0.15-1.942-0.45-2.831c-0.3-0.887-0.825-1.649-1.576-2.287s-1.763-0.998-3.039-1.373
			c-1.275-0.376-2.889-0.416-4.84-0.416h-6.924v15h6.699C203.893,46.334,205.275,46.198,206.513,45.872z"/>
		<path d="M268.932,61.91c0.953,0,1.75,0.352,2.391,1.055c0.563,0.625,0.844,1.352,0.844,2.18c0,0.953-0.359,1.75-1.079,2.391
			c-0.625,0.563-1.344,0.844-2.156,0.844c-0.953,0-1.75-0.359-2.391-1.078c-0.563-0.609-0.844-1.328-0.844-2.156
			c0-0.953,0.359-1.75,1.078-2.391C267.401,62.191,268.12,61.91,268.932,61.91z"/>
		<path d="M305.521,33.128c0.188,2.438,0.461,5.219,0.82,8.344c0,0.047,0,0.086,0,0.117c0,0.281-0.164,0.469-0.492,0.563
			c-0.109,0.016-0.203,0.023-0.281,0.023c-0.188,0-0.352-0.141-0.492-0.422c-1.422-2.75-2.859-4.758-4.313-6.023
			c-1.781-1.5-3.828-2.25-6.141-2.25c-3.797,0-6.867,1.703-9.211,5.109c-2.078,3.031-3.117,6.828-3.117,11.391
			c0,4.75,1.352,8.633,4.055,11.648c2.359,2.609,5.195,3.914,8.508,3.914c5.078,0,9.016-2.227,11.813-6.68
			c0.078-0.156,0.195-0.234,0.352-0.234c0.141,0,0.344,0.063,0.609,0.188c0.281,0.125,0.422,0.297,0.422,0.516
			c0,0.094-0.031,0.203-0.094,0.328c-3.203,5.813-7.906,8.719-14.109,8.719c-5.672,0-10.234-1.922-13.688-5.766
			c-3-3.344-4.5-7.516-4.5-12.516c0-5.688,1.953-10.266,5.859-13.734c3.391-3.016,7.563-4.523,12.516-4.523
			c1.969,0,4,0.258,6.094,0.773c1.703,0.422,3.008,0.633,3.914,0.633C304.528,33.246,305.021,33.207,305.521,33.128z"/>
		<path d="M321.692,44.988c3.469,0,6.281,1.266,8.438,3.797c1.859,2.188,2.789,4.828,2.789,7.922c0,3.531-1.156,6.422-3.469,8.672
			c-2.078,2-4.664,3-7.758,3c-3.5,0-6.32-1.258-8.461-3.773c-1.813-2.125-2.719-4.727-2.719-7.805c0-3.531,1.172-6.445,3.516-8.742
			C316.106,46.011,318.661,44.988,321.692,44.988z M321.692,46.417c-1.891,0-3.336,1.117-4.336,3.352
			c-0.813,1.828-1.219,4.141-1.219,6.938c0,3.344,0.516,5.922,1.547,7.734c0.969,1.672,2.305,2.508,4.008,2.508
			c1.891,0,3.344-1.125,4.359-3.375c0.828-1.828,1.242-4.117,1.242-6.867c0-3.391-0.516-5.984-1.547-7.781
			C324.778,47.253,323.427,46.417,321.692,46.417z"/>
		<path d="M339.06,60.41V38.8c0-1.672-0.109-2.984-0.328-3.938c-0.172-0.734-0.648-1.102-1.43-1.102c-0.078,0-0.133,0-0.164,0
			l-1.289,0.094c-0.094,0-0.164,0-0.211,0c-0.219,0-0.344-0.18-0.375-0.539c0-0.094,0-0.172,0-0.234c0-0.25,0.164-0.414,0.492-0.492
			c2.406-0.453,5.047-1.148,7.922-2.086c0.375,0,0.563,0.109,0.563,0.328c-0.156,6.047-0.234,9.984-0.234,11.813V60.41
			c0,3,0.109,4.711,0.328,5.133c0.188,0.359,0.523,0.602,1.008,0.727c0.25,0.078,0.813,0.156,1.688,0.234
			c0.219,0.031,0.328,0.219,0.328,0.563c0,0.359-0.125,0.539-0.375,0.539c-1.797-0.094-3.539-0.141-5.227-0.141
			c-1.859,0-3.68,0.047-5.461,0.141c-0.359,0-0.539-0.18-0.539-0.539c0-0.344,0.156-0.531,0.469-0.563
			c0.891-0.094,1.461-0.188,1.711-0.281c0.328-0.125,0.578-0.352,0.75-0.68C338.935,64.996,339.06,63.285,339.06,60.41z"/>
		<path d="M366.481,68.332c-0.391,0-0.586-0.195-0.586-0.586c0.094-1.406,0.141-2.656,0.141-3.75
			c-1.641,2.922-4.039,4.383-7.195,4.383c-1.766,0-3.289-0.438-4.57-1.313c-1.75-1.172-2.625-3.008-2.625-5.508l0.094-5.133v-3.797
			c0-1.891-0.063-3.125-0.188-3.703c-0.203-0.875-0.703-1.289-1.5-1.242l-1.242,0.047c-0.266,0-0.43-0.023-0.492-0.07
			c-0.063-0.063-0.102-0.219-0.117-0.469c-0.016-0.125-0.023-0.211-0.023-0.258c0-0.266,0.164-0.414,0.492-0.445
			c2.922-0.391,5.5-0.844,7.734-1.359c0.375,0,0.563,0.164,0.563,0.492c-0.125,3.047-0.188,5.844-0.188,8.391v5.039
			c0,2.344,0.18,3.883,0.539,4.617c0.609,1.547,1.773,2.32,3.492,2.32s3.125-0.93,4.219-2.789c0.672-1.109,1.008-2.375,1.008-3.797
			v-6.773c0-1.516-0.094-2.734-0.281-3.656c-0.203-0.906-0.703-1.336-1.5-1.289l-1.289,0.094h-0.164
			c-0.234,0-0.367-0.195-0.398-0.586c-0.016-0.156-0.023-0.242-0.023-0.258c0-0.234,0.18-0.375,0.539-0.422
			c1.984-0.234,4.5-0.695,7.547-1.383c0.344,0,0.516,0.148,0.516,0.445c-0.094,2.328-0.141,5.141-0.141,8.438v6.633
			c0,2.594,0.094,4.18,0.281,4.758c0.219,0.578,0.813,0.898,1.781,0.961l0.914,0.047c0.313,0.031,0.469,0.219,0.469,0.563
			c0,0.359-0.141,0.539-0.422,0.539C371.599,67.636,369.138,67.91,366.481,68.332z"/>
		<path d="M398.122,49.746c1.828-3.172,4.32-4.758,7.477-4.758c1.578,0,3,0.453,4.266,1.359c1.703,1.203,2.555,3.039,2.555,5.508
			l-0.047,5.344v3.305c0,2.906,0.109,4.602,0.328,5.086c0.188,0.328,0.555,0.563,1.102,0.703c0.219,0.047,0.75,0.117,1.594,0.211
			c0.25,0.047,0.375,0.219,0.375,0.516c0,0.391-0.125,0.586-0.375,0.586l-5.273-0.141c-0.688,0-1.656,0.016-2.906,0.047
			c-1.469,0.047-2.359,0.078-2.672,0.094c-0.281,0-0.422-0.195-0.422-0.586c0-0.344,0.141-0.516,0.422-0.516
			c0.922-0.094,1.484-0.18,1.688-0.258c0.375-0.109,0.648-0.328,0.82-0.656c0.25-0.516,0.375-2.211,0.375-5.086v-6.539
			c0-1.844-0.18-3.219-0.539-4.125c-0.578-1.609-1.695-2.414-3.352-2.414c-1.672,0-3.047,0.914-4.125,2.742
			c-0.672,1.094-1.008,2.344-1.008,3.75v6.586c0,2.906,0.109,4.602,0.328,5.086c0.156,0.344,0.508,0.578,1.055,0.703
			c0.25,0.047,0.813,0.117,1.688,0.211c0.219,0.031,0.328,0.219,0.328,0.563c0,0.359-0.125,0.539-0.375,0.539
			c-0.094,0-1.07-0.031-2.93-0.094c-0.984-0.031-1.766-0.047-2.344-0.047c-0.719,0-1.688,0.016-2.906,0.047
			c-1.5,0.063-2.359,0.094-2.578,0.094c-0.281,0-0.422-0.195-0.422-0.586c0-0.344,0.141-0.516,0.422-0.516
			c0.828-0.063,1.375-0.141,1.641-0.234c0.375-0.125,0.648-0.352,0.82-0.68c0.25-0.516,0.375-2.211,0.375-5.086v-6.539v-0.961
			c0-1.266-0.18-2.32-0.539-3.164c-0.609-1.609-1.742-2.414-3.398-2.414c-1.609,0-2.953,0.914-4.031,2.742
			c-0.703,1.172-1.055,2.453-1.055,3.844v6.492c0,2.984,0.094,4.68,0.281,5.086c0.156,0.359,0.508,0.594,1.055,0.703
			c0.156,0.031,0.703,0.102,1.641,0.211c0.25,0.047,0.375,0.25,0.375,0.609c0,0.328-0.125,0.492-0.375,0.492
			c-3.516-0.094-5.289-0.141-5.32-0.141c-0.703,0-1.648,0.016-2.836,0.047c-1.438,0.063-2.289,0.094-2.555,0.094
			c-0.281,0-0.422-0.18-0.422-0.539c0-0.344,0.141-0.531,0.422-0.563c0.922-0.094,1.484-0.18,1.688-0.258
			c0.391-0.109,0.672-0.328,0.844-0.656c0.234-0.406,0.352-1.359,0.352-2.859v-2.227v-7.102c0-2.078-0.109-3.406-0.328-3.984
			c-0.25-0.672-0.703-1.008-1.359-1.008c-0.141,0-0.25,0-0.328,0l-1.148,0.094c-0.109,0-0.188,0-0.234,0
			c-0.234,0-0.367-0.18-0.398-0.539c0-0.078,0-0.156,0-0.234c0-0.25,0.18-0.414,0.539-0.492c2.469-0.531,5.031-1.234,7.688-2.109
			c0.344,0,0.516,0.133,0.516,0.398c-0.063,1.797-0.094,3.141-0.094,4.031c0.797-1.531,1.883-2.711,3.258-3.539
			c1.141-0.688,2.313-1.031,3.516-1.031c1.656,0,3.086,0.398,4.289,1.195C396.778,47.011,397.638,48.199,398.122,49.746z"/>
		<path d="M423.981,48.738c0.797-1.328,1.867-2.336,3.211-3.023c1.063-0.547,2.125-0.82,3.188-0.82c3.297,0,5.914,1.219,7.852,3.656
			c1.672,2.109,2.508,4.766,2.508,7.969c0,3.688-1.102,6.641-3.305,8.859c-2,2-4.563,3-7.688,3c-1.594,0-2.953-0.328-4.078-0.984
			c-0.375-0.219-1.133-0.789-2.273-1.711c-0.156-0.125-0.344-0.188-0.563-0.188c-0.203,0-0.383,0.063-0.539,0.188l-2.109,1.875
			c-0.266,0.188-0.578,0.281-0.938,0.281c-0.391,0-0.586-0.102-0.586-0.305c0-0.031,0-0.07,0-0.117
			c0.25-3.688,0.375-7.227,0.375-10.617V38.941c0-1.906-0.078-3.281-0.234-4.125c-0.156-0.641-0.609-0.961-1.359-0.961h-0.234
			l-1.195,0.094c-0.109,0-0.18,0-0.211,0c-0.234,0-0.367-0.195-0.398-0.586c-0.016-0.063-0.023-0.133-0.023-0.211
			c0-0.219,0.148-0.383,0.445-0.492c2.766-0.516,5.391-1.203,7.875-2.063c0.344,0,0.516,0.125,0.516,0.375
			c-0.156,3.672-0.234,7.594-0.234,11.766V48.738z M423.981,59.636c0,1.188,0.031,1.984,0.094,2.391
			c0.094,0.656,0.305,1.266,0.633,1.828c1.141,1.953,2.594,2.93,4.359,2.93c1.891,0,3.383-1.07,4.477-3.211
			c0.953-1.859,1.43-4.203,1.43-7.031c0-3.094-0.648-5.492-1.945-7.195c-1.063-1.406-2.383-2.109-3.961-2.109
			c-1.688,0-3.109,0.82-4.266,2.461c-0.406,0.609-0.656,1.242-0.75,1.898c-0.047,0.313-0.07,0.93-0.07,1.852V59.636z"/>
		<path d="M450.255,54.878c-0.141,0.594-0.211,1.172-0.211,1.734c0,3.125,0.867,5.609,2.602,7.453
			c1.297,1.375,2.719,2.063,4.266,2.063c1.625,0,2.977-0.313,4.055-0.938c0.891-0.531,1.766-1.375,2.625-2.531
			c0.109-0.156,0.266-0.234,0.469-0.234c0.094,0,0.242,0.063,0.445,0.188c0.25,0.203,0.375,0.367,0.375,0.492
			c0,0.078-0.078,0.25-0.234,0.516c-1.172,1.797-2.531,3.063-4.078,3.797c-1.328,0.641-2.93,0.961-4.805,0.961
			c-3.516,0-6.32-1.234-8.414-3.703c-1.781-2.109-2.672-4.719-2.672-7.828c0-3.531,1.172-6.461,3.516-8.789
			c2.094-2.047,4.633-3.07,7.617-3.07c3.031,0,5.461,1.188,7.289,3.563c1.297,1.703,1.984,3.492,2.063,5.367
			c0,0.313-0.078,0.586-0.234,0.82c-0.141,0.156-0.383,0.234-0.727,0.234c-3.203-0.094-6.281-0.141-9.234-0.141
			C453.294,54.832,451.724,54.847,450.255,54.878z M450.489,53.144c1.594,0.031,2.773,0.047,3.539,0.047
			c1.719,0,3.531-0.07,5.438-0.211c0.281-0.031,0.422-0.281,0.422-0.75c-0.094-1.688-0.492-3.07-1.195-4.148
			c-0.719-1.109-1.68-1.664-2.883-1.664c-1.359,0-2.539,0.711-3.539,2.133C451.427,49.753,450.833,51.285,450.489,53.144z"/>
		<path d="M476.271,50.214c1.953-3.516,4.016-5.273,6.188-5.273c0.859,0,1.539,0.156,2.039,0.469
			c0.406,0.266,0.609,0.609,0.609,1.031c0,0.984-0.32,1.859-0.961,2.625c-0.531,0.641-1.078,0.961-1.641,0.961
			c-0.375,0-0.852-0.195-1.43-0.586c-0.516-0.313-0.93-0.469-1.242-0.469c-0.703,0-1.445,0.477-2.227,1.43
			c-0.891,1.094-1.336,2.508-1.336,4.242v5.859c0,2.938,0.109,4.633,0.328,5.086c0.188,0.359,0.531,0.594,1.031,0.703
			c0.219,0.047,0.828,0.117,1.828,0.211c0.219,0,0.328,0.203,0.328,0.609c0,0.328-0.109,0.492-0.328,0.492
			c-0.438-0.016-1.063-0.031-1.875-0.047c-1.688-0.063-2.875-0.094-3.563-0.094c-0.016,0-1.891,0.047-5.625,0.141
			c-0.25,0-0.375-0.164-0.375-0.492c0-0.359,0.125-0.563,0.375-0.609c0.969-0.094,1.563-0.18,1.781-0.258
			c0.375-0.109,0.633-0.328,0.773-0.656c0.313-0.609,0.469-2.305,0.469-5.086v-7.102c0-1.813-0.125-3.125-0.375-3.938
			c-0.203-0.703-0.688-1.055-1.453-1.055c-0.078,0-0.141,0-0.188,0l-1.195,0.094c-0.125,0-0.211,0-0.258,0
			c-0.25,0-0.391-0.18-0.422-0.539c0-0.078,0-0.148,0-0.211c0-0.266,0.195-0.438,0.586-0.516c2.625-0.531,5.188-1.25,7.688-2.156
			c0.406,0,0.609,0.148,0.609,0.445C476.317,48.152,476.271,49.714,476.271,50.214z"/>
		<path d="M492.161,67.652c-2.516-0.703-3.773-1.906-3.773-3.609c0-1.016,0.492-1.922,1.477-2.719
			c0.813-0.656,2.063-1.336,3.75-2.039c-4.031-1.078-6.047-3.328-6.047-6.75c0-2.203,0.914-4.047,2.742-5.531
			c1.656-1.344,3.688-2.016,6.094-2.016c1.797,0,3.555,0.383,5.273,1.148c2.531,0,5.109-0.125,7.734-0.375
			c0.219,0,0.328,0.109,0.328,0.328l-0.68,1.5c-0.109,0.219-0.234,0.328-0.375,0.328c-1.156-0.094-2.836-0.141-5.039-0.141
			c1.469,1.219,2.203,2.742,2.203,4.57c0,2.313-0.836,4.133-2.508,5.461c-1.578,1.25-3.703,1.875-6.375,1.875
			c-0.453,0-1-0.031-1.641-0.094c-1.609,0.953-2.414,1.93-2.414,2.93c0,1.016,0.953,1.523,2.859,1.523l4.406-0.047
			c6.219-0.063,9.328,2.078,9.328,6.422c0,2.594-0.938,4.641-2.813,6.141c-2.141,1.703-5.383,2.555-9.727,2.555
			c-3.297,0-5.898-0.656-7.805-1.969c-1.547-1.063-2.32-2.344-2.32-3.844c0-1.391,0.484-2.547,1.453-3.469
			C489.138,69.035,490.427,68.308,492.161,67.652z M493.849,68.027c-0.484,0.375-0.82,0.664-1.008,0.867
			c-0.859,1.125-1.289,2.375-1.289,3.75c0,1.594,0.656,2.859,1.969,3.797c1.172,0.828,2.664,1.242,4.477,1.242
			c2.375,0,4.211-0.578,5.508-1.734c1.094-0.969,1.641-2.219,1.641-3.75c0-1.328-0.391-2.289-1.172-2.883
			c-0.969-0.734-2.617-1.102-4.945-1.102h-1.922C496.216,68.214,495.13,68.152,493.849,68.027z M496.778,46.324
			c-1.375,0-2.43,0.641-3.164,1.922c-0.609,1.078-0.914,2.453-0.914,4.125c0,1.984,0.406,3.523,1.219,4.617
			c0.734,0.969,1.688,1.453,2.859,1.453c1.313,0,2.328-0.617,3.047-1.852c0.625-1.078,0.938-2.484,0.938-4.219
			c0-1.938-0.406-3.461-1.219-4.57C498.825,46.816,497.903,46.324,496.778,46.324z"/>
	</g>
</g>
<g id="Layer_2" display="none">
	<path display="inline" fill="#4D4D4D" d="M196.258,219.931c-1-0.688-2.22-1.438-3.657-1.813c-1.439-0.377-3.059-0.783-4.859-0.783
		h-7.074v17h7.299c3.827,0,6.678-0.553,8.554-1.977c1.875-1.426,2.813-3.571,2.813-6.598c0-1.251-0.262-2.337-0.788-3.337
		C198.021,221.422,197.259,220.62,196.258,219.931z"/>
	<path display="inline" fill="#4D4D4D" d="M213.229,183.334H42.105l-26.62,33.354l26.62,31.646h171.124l26.621-31.646
		L213.229,183.334z M89.667,237.804c-5,1.768-9.589,2.692-14.377,2.917c-4.487,0.211-9.246-0.231-13.482-1.794
		c-3.926-1.448-7.511-3.932-9.938-7.366c-2.452-3.472-3.75-7.621-4.161-11.82c-0.851-8.691,1.444-17.821,8.446-23.51
		c6.999-5.686,16.752-6.671,25.394-5.354c2.111,0.321,4.132,0.064,6.143,0.784c0.37,0.133,0.974,0.152,0.974,0.604
		c0,0.385,0,0.771,0,1.156c0,1.756,0,3.514,0,5.271c-8-3.571-18.399-4.165-25.817,1.101c-7.254,5.149-8.48,15.415-6.287,23.478
		c1.096,4.026,3.54,7.486,7.276,9.448c3.806,1.999,8.391,2.434,12.617,2.036c1.089-0.103,2.179-0.254,3.25-0.478
		c0.779-0.163,1.906-0.169,2.667-0.413c0.125-0.164,0.295-0.918,0.295-1.114c0-2.153,0-4.307,0-6.46c0-2.678,0-3.956,0-5.956h-11v-6
		h18V237.804z M128.385,239.334l-20.069-29.736l-5.649-9.988v24.724v16.001h-8v-49h10.945l19.7,28.787l7.355,11.041V204.9v-6.427
		l4,6.089v3.641l5.286,7.067l-5.286,7.219l0.001,3.857L128.385,239.334z M163.191,240.334l-12.078-19.969l-11.446,19.311v0.658
		h-0.363h-0.013h-7.561l8.23-13.219l7.322-12.087l-7.322-11.498l-7.685-12.196h7.685h0.231l11.218,18.459l11.293-18.459h7.691
		L155.35,214.99l16.282,25.345H163.191z M205.057,231.862c-0.914,1.814-2.214,3.346-3.902,4.597
		c-1.688,1.251-3.728,2.226-6.116,2.876c-2.389,0.65-5.047,1-7.973,1h-12.399v-49h13.599c10.931,0,16.396,3.934,16.396,11.888
		c0,2.65-0.632,4.906-1.894,6.807c-1.263,1.9-3.321,3.305-6.172,4.229c1.326,0.25,2.583,0.67,3.771,1.271
		c1.187,0.6,2.231,1.372,3.132,2.323s1.613,2.074,2.139,3.375c0.525,1.3,0.788,2.764,0.788,4.39
		C206.425,227.967,205.969,230.049,205.057,231.862z"/>
	<path display="inline" fill="#4D4D4D" d="M191.737,211.79c1.238-0.324,2.301-0.853,3.189-1.528
		c0.887-0.675,1.576-1.533,2.063-2.546c0.487-1.013,0.73-2.228,0.73-3.629c0-1-0.15-1.947-0.45-2.836
		c-0.3-0.887-0.825-1.652-1.576-2.29s-1.763-0.916-3.039-1.291c-1.275-0.376-2.889-0.335-4.84-0.335h-7.149v15h6.924
		C189.117,212.334,190.5,212.116,191.737,211.79z"/>
</g>
</svg>
