<svg version="1.1" id="Layer_1" xmlns="http://www.w3.org/2000/svg" xmlns:xlink="http://www.w3.org/1999/xlink" x="0px" y="0px"
	 width="1483px" height="1101px" viewBox="0 0 1483 1101" enable-background="new 0 0 1483 1101" xml:space="preserve">
<g>
	<g>
		<polygon fill="#FFFFFF" stroke="#CCCCCC" stroke-width="11" stroke-miterlimit="10" points="288.412,572.373 379.029,520.055 
			469.647,572.373 469.647,677.01 379.029,729.328 288.412,677.01 		"/>
		
			<line fill="none" stroke="#E6E6E6" stroke-width="2" stroke-miterlimit="10" x1="378.933" y1="624.691" x2="288.412" y2="572.373"/>
		
			<line fill="none" stroke="#E6E6E6" stroke-width="2" stroke-miterlimit="10" x1="378.933" y1="624.691" x2="469.647" y2="572.373"/>
		
			<line fill="none" stroke="#E6E6E6" stroke-width="2" stroke-miterlimit="10" x1="378.933" y1="624.691" x2="379.029" y2="729.328"/>
		<rect x="323.933" y="609.425" fill="none" width="110" height="39.104"/>
		<text transform="matrix(1 0 0 1 352.4369 644.4651)" fill="#E63EA3" font-family="'Raleway-Bold'" font-size="48">JS</text>
	</g>
	<g>
		<polygon fill="#FFFFFF" stroke="#CCCCCC" stroke-width="11" stroke-miterlimit="10" points="469.647,572.373 560.265,520.055 
			650.882,572.373 650.882,677.01 560.265,729.328 469.647,677.01 		"/>
		
			<line fill="none" stroke="#E6E6E6" stroke-width="2" stroke-miterlimit="10" x1="560.168" y1="624.691" x2="469.647" y2="572.373"/>
		
			<line fill="none" stroke="#E6E6E6" stroke-width="2" stroke-miterlimit="10" x1="560.168" y1="624.691" x2="650.882" y2="572.373"/>
		
			<line fill="none" stroke="#E6E6E6" stroke-width="2" stroke-miterlimit="10" x1="560.168" y1="624.691" x2="560.265" y2="729.328"/>
		<rect x="475.361" y="609.87" fill="none" width="169.613" height="38.214"/>
		<text transform="matrix(1 0 0 1 492.6566 644.91)" fill="#E63EA3" font-family="'Raleway-Bold'" font-size="48">HTML</text>
	</g>
	<g>
		<polygon fill="#FFFFFF" stroke="#CCCCCC" stroke-width="11" stroke-miterlimit="10" points="560.265,729.328 650.882,677.01 
			741.5,729.328 741.5,833.964 650.882,886.282 560.265,833.964 		"/>
		
			<line fill="none" stroke="#E6E6E6" stroke-width="2" stroke-miterlimit="10" x1="650.786" y1="781.646" x2="560.265" y2="729.328"/>
		<line fill="none" stroke="#E6E6E6" stroke-width="2" stroke-miterlimit="10" x1="650.786" y1="781.646" x2="741.5" y2="729.328"/>
		
			<line fill="none" stroke="#E6E6E6" stroke-width="2" stroke-miterlimit="10" x1="650.786" y1="781.646" x2="650.882" y2="886.282"/>
		<rect x="565.979" y="766.824" fill="none" width="169.613" height="38.214"/>
		<text transform="matrix(1 0 0 1 604.8983 801.8643)" fill="#E63EA3" font-family="'Raleway-Bold'" font-size="48">CSS</text>
	</g>
	<g>
		<polygon fill="#FFFFFF" stroke="#E63EA3" stroke-width="11" stroke-miterlimit="10" points="379.029,733.809 469.647,681.491 
			560.265,733.809 560.265,838.445 469.647,890.763 379.029,838.445 		"/>
		
			<line fill="none" stroke="#E6E6E6" stroke-width="2" stroke-miterlimit="10" x1="469.55" y1="786.127" x2="379.029" y2="733.809"/>
		
			<line fill="none" stroke="#E6E6E6" stroke-width="2" stroke-miterlimit="10" x1="469.55" y1="786.127" x2="560.265" y2="733.809"/>
		
			<line fill="none" stroke="#E6E6E6" stroke-width="2" stroke-miterlimit="10" x1="469.55" y1="786.127" x2="469.647" y2="890.763"/>
		<rect x="384.84" y="772.648" fill="none" width="169.613" height="26.957"/>
		<text transform="matrix(1 0 0 1 398.3685 794.548)" fill="#999999" font-family="'Raleway-Bold'" font-size="30">Bootstrap</text>
	</g>
	<g>
		<polygon fill="#FFFFFF" stroke="#E63EA3" stroke-width="11" stroke-miterlimit="10" points="197.794,415.419 288.412,363.101 
			379.029,415.419 379.029,520.055 288.412,572.373 197.794,520.055 		"/>
		
			<line fill="none" stroke="#E6E6E6" stroke-width="2" stroke-miterlimit="10" x1="288.315" y1="467.737" x2="197.794" y2="415.419"/>
		
			<line fill="none" stroke="#E6E6E6" stroke-width="2" stroke-miterlimit="10" x1="288.315" y1="467.737" x2="379.029" y2="415.419"/>
		
			<line fill="none" stroke="#E6E6E6" stroke-width="2" stroke-miterlimit="10" x1="288.315" y1="467.737" x2="288.412" y2="572.373"/>
		<rect x="203.605" y="454.258" fill="none" width="169.613" height="26.957"/>
		<text transform="matrix(1 0 0 1 240.8627 476.1582)" fill="#999999" font-family="'Raleway-Bold'" font-size="30">jQuery</text>
	</g>
	<g>
		<polygon fill="#FFFFFF" stroke="#E63EA3" stroke-width="11" stroke-miterlimit="10" points="107.176,577.419 197.794,525.101 
			288.412,577.419 288.412,682.055 197.794,734.373 107.176,682.055 		"/>
		
			<line fill="none" stroke="#E6E6E6" stroke-width="2" stroke-miterlimit="10" x1="197.697" y1="629.737" x2="107.176" y2="577.419"/>
		
			<line fill="none" stroke="#E6E6E6" stroke-width="2" stroke-miterlimit="10" x1="197.697" y1="629.737" x2="288.412" y2="577.419"/>
		
			<line fill="none" stroke="#E6E6E6" stroke-width="2" stroke-miterlimit="10" x1="197.697" y1="629.737" x2="197.794" y2="734.373"/>
		<rect x="112.987" y="616.258" fill="none" width="169.613" height="26.957"/>
		<text transform="matrix(1 0 0 1 154.6547 638.1582)" fill="#999999" font-family="'Raleway-Bold'" font-size="30">Vue.js</text>
	</g>
	<g>
		<polygon fill="#FFFFFF" stroke="#E63EA3" stroke-width="11" stroke-miterlimit="10" points="469.647,890.568 560.265,838.25 
			650.882,890.568 650.882,995.204 560.265,1047.522 469.647,995.204 		"/>
		
			<line fill="none" stroke="#E6E6E6" stroke-width="2" stroke-miterlimit="10" x1="560.168" y1="942.886" x2="469.647" y2="890.568"/>
		
			<line fill="none" stroke="#E6E6E6" stroke-width="2" stroke-miterlimit="10" x1="560.168" y1="942.886" x2="650.882" y2="890.568"/>
		
			<line fill="none" stroke="#E6E6E6" stroke-width="2" stroke-miterlimit="10" x1="560.168" y1="942.886" x2="560.265" y2="1047.522"/>
		<rect x="475.458" y="929.407" fill="none" width="169.613" height="26.957"/>
		<text transform="matrix(1 0 0 1 522.5999 951.307)" fill="#999999" font-family="'Raleway-Bold'" font-size="30">SASS</text>
	</g>
	<g>
		<polygon fill="#CCCCCC" stroke="#CCCCCC" stroke-width="11" stroke-miterlimit="10" points="650.882,572.373 741.5,520.055 
			832.118,572.373 832.118,677.01 741.5,729.328 650.882,677.01 		"/>
		
			<line fill="#CCCCCC" stroke="#E6E6E6" stroke-width="2" stroke-miterlimit="10" x1="741.403" y1="624.691" x2="650.882" y2="572.373"/>
		
			<line fill="#CCCCCC" stroke="#E6E6E6" stroke-width="2" stroke-miterlimit="10" x1="741.403" y1="624.691" x2="832.118" y2="572.373"/>
		
			<line fill="#CCCCCC" stroke="#E6E6E6" stroke-width="2" stroke-miterlimit="10" x1="741.403" y1="624.691" x2="741.5" y2="729.328"/>
	</g>
	<rect x="861.113" y="608.869" fill="none" width="122.857" height="49.997"/>
	<text transform="matrix(1 0 0 1 861.1132 643.9095)"><tspan x="0" y="0" font-family="'Raleway-Bold'" font-size="48" letter-spacing="7">MV</tspan><tspan x="89.93" y="0" font-family="'Raleway-Bold'" font-size="48">C</tspan></text>
	<g>
		<polygon fill="none" stroke="#CCCCCC" stroke-width="4" stroke-miterlimit="10" points="832.118,572.373 922.735,520.055 
			1013.353,572.373 1013.353,677.01 922.735,729.328 832.118,677.01 		"/>
		
			<line fill="#CCCCCC" stroke="#E6E6E6" stroke-width="2" stroke-miterlimit="10" x1="922.639" y1="624.691" x2="832.118" y2="572.373"/>
		
			<line fill="#CCCCCC" stroke="#E6E6E6" stroke-width="2" stroke-miterlimit="10" x1="922.639" y1="624.691" x2="1013.353" y2="572.373"/>
		
			<line fill="#CCCCCC" stroke="#E6E6E6" stroke-width="2" stroke-miterlimit="10" x1="922.639" y1="624.691" x2="922.735" y2="729.328"/>
	</g>
	<g>
		<polygon fill="#CCCCCC" stroke="#CCCCCC" stroke-width="11" stroke-miterlimit="10" points="922.735,729.328 1013.353,677.01 
			1103.971,729.328 1103.971,833.964 1013.353,886.282 922.735,833.964 		"/>
		
			<line fill="#CCCCCC" stroke="#E6E6E6" stroke-width="2" stroke-miterlimit="10" x1="1013.256" y1="781.646" x2="922.735" y2="729.328"/>
		
			<line fill="#CCCCCC" stroke="#E6E6E6" stroke-width="2" stroke-miterlimit="10" x1="1013.256" y1="781.646" x2="1103.971" y2="729.328"/>
		
			<line fill="#CCCCCC" stroke="#E6E6E6" stroke-width="2" stroke-miterlimit="10" x1="1013.256" y1="781.646" x2="1013.353" y2="886.282"/>
	</g>
	<g>
		<polygon fill="#CCCCCC" stroke="#CCCCCC" stroke-width="11" stroke-miterlimit="10" points="746.924,415.419 837.542,363.101 
			928.16,415.419 928.16,520.055 837.542,572.373 746.924,520.055 		"/>
		
			<line fill="#CCCCCC" stroke="#E6E6E6" stroke-width="2" stroke-miterlimit="10" x1="837.445" y1="467.737" x2="746.924" y2="415.419"/>
		
			<line fill="#CCCCCC" stroke="#E6E6E6" stroke-width="2" stroke-miterlimit="10" x1="837.445" y1="467.737" x2="928.16" y2="415.419"/>
		
			<line fill="#CCCCCC" stroke="#E6E6E6" stroke-width="2" stroke-miterlimit="10" x1="837.445" y1="467.737" x2="837.542" y2="572.373"/>
	</g>
	<g>
		<polygon fill="#FFFFFF" stroke="#CCCCCC" stroke-width="11" stroke-miterlimit="10" points="1013.353,886.282 1103.971,833.964 
			1194.588,886.282 1194.588,990.918 1103.971,1043.237 1013.353,990.918 		"/>
		
			<line fill="none" stroke="#E6E6E6" stroke-width="2" stroke-miterlimit="10" x1="1103.874" y1="938.6" x2="1013.353" y2="886.282"/>
		
			<line fill="none" stroke="#E6E6E6" stroke-width="2" stroke-miterlimit="10" x1="1103.874" y1="938.6" x2="1194.588" y2="886.282"/>
		
			<line fill="none" stroke="#E6E6E6" stroke-width="2" stroke-miterlimit="10" x1="1103.874" y1="938.6" x2="1103.971" y2="1043.237"/>
		<rect x="1018.933" y="923.334" fill="none" width="169.881" height="39.104"/>
		<text transform="matrix(1 0 0 1 1023.0671 958.3739)" fill="#E63EA3" font-family="'Raleway-Bold'" font-size="48">MySQL</text>
	</g>
	<g>
		<polygon fill="#FFFFFF" stroke="#CCCCCC" stroke-width="11" stroke-miterlimit="10" points="832.021,886.282 922.639,833.964 
			1013.256,886.282 1013.256,990.918 922.639,1043.237 832.021,990.918 		"/>
		<line fill="none" stroke="#E6E6E6" stroke-width="2" stroke-miterlimit="10" x1="922.542" y1="938.6" x2="832.021" y2="886.282"/>
		
			<line fill="none" stroke="#E6E6E6" stroke-width="2" stroke-miterlimit="10" x1="922.542" y1="938.6" x2="1013.256" y2="886.282"/>
		
			<line fill="none" stroke="#E6E6E6" stroke-width="2" stroke-miterlimit="10" x1="922.542" y1="938.6" x2="922.639" y2="1043.237"/>
		<rect x="837.602" y="900.154" fill="none" width="169.881" height="95.246"/>
		<text transform="matrix(1 0 0 1 842.9833 935.1935)"><tspan x="0" y="0" fill="#E63EA3" font-family="'Raleway-Bold'" font-size="48">Mongo</tspan><tspan x="46.055" y="57.6" fill="#E63EA3" font-family="'Raleway-Bold'" font-size="48">DB</tspan></text>
	</g>
	<g>
		<polygon fill="#FFFFFF" stroke="#CCCCCC" stroke-width="11" stroke-miterlimit="10" points="650.786,258.465 741.403,206.146 
			832.021,258.465 832.021,363.101 741.403,415.419 650.786,363.101 		"/>
		
			<line fill="none" stroke="#E6E6E6" stroke-width="2" stroke-miterlimit="10" x1="741.307" y1="310.783" x2="650.786" y2="258.465"/>
		
			<line fill="none" stroke="#E6E6E6" stroke-width="2" stroke-miterlimit="10" x1="741.307" y1="310.783" x2="832.021" y2="258.465"/>
		
			<line fill="none" stroke="#E6E6E6" stroke-width="2" stroke-miterlimit="10" x1="741.307" y1="310.783" x2="741.403" y2="415.419"/>
		<rect x="656.5" y="295.961" fill="none" width="169.613" height="38.214"/>
		<text transform="matrix(1 0 0 1 667.5902 325.8908)" fill="#E63EA3" font-family="'Raleway-Bold'" font-size="41">Node.js</text>
	</g>
	<g>
		<polygon fill="#FFFFFF" stroke="#E63EA3" stroke-width="11" stroke-miterlimit="10" points="560.265,415.419 650.882,363.101 
			741.5,415.419 741.5,520.055 650.882,572.373 560.265,520.055 		"/>
		
			<line fill="none" stroke="#E6E6E6" stroke-width="2" stroke-miterlimit="10" x1="650.786" y1="467.737" x2="560.265" y2="415.419"/>
		<line fill="none" stroke="#E6E6E6" stroke-width="2" stroke-miterlimit="10" x1="650.786" y1="467.737" x2="741.5" y2="415.419"/>
		
			<line fill="none" stroke="#E6E6E6" stroke-width="2" stroke-miterlimit="10" x1="650.786" y1="467.737" x2="650.882" y2="572.373"/>
		<rect x="566.076" y="454.258" fill="none" width="169.613" height="26.957"/>
		<text transform="matrix(1 0 0 1 616.2478 476.1581)" fill="#999999" font-family="'Raleway-Bold'" font-size="30">Jade</text>
	</g>
	<g>
		<polygon fill="#FFFFFF" stroke="#E63EA3" stroke-width="11" stroke-miterlimit="10" points="469.55,258.465 560.168,206.146 
			650.786,258.465 650.786,363.101 560.168,415.419 469.55,363.101 		"/>
		
			<line fill="none" stroke="#E6E6E6" stroke-width="2" stroke-miterlimit="10" x1="560.071" y1="310.783" x2="469.55" y2="258.465"/>
		
			<line fill="none" stroke="#E6E6E6" stroke-width="2" stroke-miterlimit="10" x1="560.071" y1="310.783" x2="650.786" y2="258.465"/>
		
			<line fill="none" stroke="#E6E6E6" stroke-width="2" stroke-miterlimit="10" x1="560.071" y1="310.783" x2="560.168" y2="415.419"/>
		<rect x="475.361" y="297.304" fill="none" width="169.613" height="26.957"/>
		<text transform="matrix(1 0 0 1 503.9788 319.2038)" fill="#999999" font-family="'Raleway-Bold'" font-size="30">Express</text>
	</g>
	<g>
		<polygon fill="#FFFFFF" stroke="#E63EA3" stroke-width="11" stroke-miterlimit="10" points="379.029,415.419 469.647,363.101 
			560.265,415.419 560.265,520.055 469.647,572.373 379.029,520.055 		"/>
		
			<line fill="none" stroke="#E6E6E6" stroke-width="2" stroke-miterlimit="10" x1="469.55" y1="467.737" x2="379.029" y2="415.419"/>
		
			<line fill="none" stroke="#E6E6E6" stroke-width="2" stroke-miterlimit="10" x1="469.55" y1="467.737" x2="560.265" y2="415.419"/>
		
			<line fill="none" stroke="#E6E6E6" stroke-width="2" stroke-miterlimit="10" x1="469.55" y1="467.737" x2="469.647" y2="572.373"/>
		<rect x="384.84" y="437.899" fill="none" width="169.613" height="59.676"/>
		<text transform="matrix(1 0 0 1 417.3879 459.799)"><tspan x="0" y="0" fill="#999999" font-family="'Raleway-Bold'" font-size="30">Handle</tspan><tspan x="20.189" y="36" fill="#999999" font-family="'Raleway-Bold'" font-size="30">Bars</tspan></text>
	</g>
	<g>
		<polygon fill="#FFFFFF" stroke="#CCCCCC" stroke-width="11" stroke-miterlimit="10" points="832.118,258.465 922.735,206.146 
			1013.353,258.465 1013.353,363.101 922.735,415.419 832.118,363.101 		"/>
		
			<line fill="none" stroke="#E6E6E6" stroke-width="2" stroke-miterlimit="10" x1="922.639" y1="310.783" x2="832.118" y2="258.465"/>
		
			<line fill="none" stroke="#E6E6E6" stroke-width="2" stroke-miterlimit="10" x1="922.639" y1="310.783" x2="1013.353" y2="258.465"/>
		
			<line fill="none" stroke="#E6E6E6" stroke-width="2" stroke-miterlimit="10" x1="922.639" y1="310.783" x2="922.735" y2="415.419"/>
		<rect x="837.832" y="295.961" fill="none" width="169.613" height="38.214"/>
		<text transform="matrix(1 0 0 1 874.8558 331.0012)" fill="#E63EA3" font-family="'Raleway-Bold'" font-size="48">PHP</text>
	</g>
	<g>
		<polygon fill="#CCCCCC" stroke="#CCCCCC" stroke-width="11" stroke-miterlimit="10" points="1013.353,572.373 1103.971,520.055 
			1194.588,572.373 1194.588,677.01 1103.971,729.328 1013.353,677.01 		"/>
		
			<line fill="#CCCCCC" stroke="#E6E6E6" stroke-width="2" stroke-miterlimit="10" x1="1103.874" y1="624.691" x2="1013.353" y2="572.373"/>
		
			<line fill="#CCCCCC" stroke="#E6E6E6" stroke-width="2" stroke-miterlimit="10" x1="1103.874" y1="624.691" x2="1194.588" y2="572.373"/>
		
			<line fill="#CCCCCC" stroke="#E6E6E6" stroke-width="2" stroke-miterlimit="10" x1="1103.874" y1="624.691" x2="1103.971" y2="729.328"/>
	</g>
	<g>
		<polygon fill="#FFFFFF" stroke="#CCCCCC" stroke-width="11" stroke-miterlimit="10" points="1194.588,572.373 1285.206,520.055 
			1375.824,572.373 1375.824,677.01 1285.206,729.328 1194.588,677.01 		"/>
		
			<line fill="none" stroke="#E6E6E6" stroke-width="2" stroke-miterlimit="10" x1="1285.109" y1="624.691" x2="1194.588" y2="572.373"/>
		
			<line fill="none" stroke="#E6E6E6" stroke-width="2" stroke-miterlimit="10" x1="1285.109" y1="624.691" x2="1375.824" y2="572.373"/>
		
			<line fill="none" stroke="#E6E6E6" stroke-width="2" stroke-miterlimit="10" x1="1285.109" y1="624.691" x2="1285.206" y2="729.328"/>
		<rect x="1200.169" y="610.056" fill="none" width="169.881" height="47.623"/>
		<text transform="matrix(1 0 0 1 1226.3103 645.0963)" fill="#E63EA3" font-family="'Raleway-Bold'" font-size="48">Shell</text>
	</g>
	<g>
		<polygon fill="#FFFFFF" stroke="#CCCCCC" stroke-width="11" stroke-miterlimit="10" points="1013.353,262.75 1103.971,210.432 
			1194.588,262.75 1194.588,367.387 1103.971,419.705 1013.353,367.387 		"/>
		
			<line fill="none" stroke="#E6E6E6" stroke-width="2" stroke-miterlimit="10" x1="1103.874" y1="315.068" x2="1013.353" y2="262.75"/>
		
			<line fill="none" stroke="#E6E6E6" stroke-width="2" stroke-miterlimit="10" x1="1103.874" y1="315.068" x2="1194.588" y2="262.75"/>
		
			<line fill="none" stroke="#E6E6E6" stroke-width="2" stroke-miterlimit="10" x1="1103.874" y1="315.068" x2="1103.971" y2="419.705"/>
		<rect x="1019.067" y="300.247" fill="none" width="169.613" height="38.214"/>
		<text transform="matrix(1 0 0 1 1043.6106 335.2869)" fill="#E63EA3" font-family="'Raleway-Bold'" font-size="48">JAVA</text>
	</g>
	<g>
		<polygon fill="#FFFFFF" stroke="#E63EA3" stroke-width="11" stroke-miterlimit="10" points="1103.971,105.796 1194.588,53.478 
			1285.206,105.796 1285.206,210.432 1194.588,262.75 1103.971,210.432 		"/>
		
			<line fill="none" stroke="#E6E6E6" stroke-width="2" stroke-miterlimit="10" x1="1194.492" y1="158.114" x2="1103.971" y2="105.796"/>
		
			<line fill="none" stroke="#E6E6E6" stroke-width="2" stroke-miterlimit="10" x1="1194.492" y1="158.114" x2="1285.206" y2="105.796"/>
		
			<line fill="none" stroke="#E6E6E6" stroke-width="2" stroke-miterlimit="10" x1="1194.492" y1="158.114" x2="1194.588" y2="262.75"/>
		<rect x="1109.781" y="131.955" fill="none" width="169.613" height="59.676"/>
		<text transform="matrix(1 0 0 1 1147.6837 153.8551)"><tspan x="0" y="0" fill="#999999" font-family="'Raleway-Bold'" font-size="30">Spring</tspan><tspan x="12.765" y="36" fill="#999999" font-family="'Raleway-Bold'" font-size="30">Boot</tspan></text>
	</g>
</g>
</svg>
